<?xml version="1.0" encoding="UTF-8"?>
<svg fill="none" viewBox="0 0 84 23" xmlns="http://www.w3.org/2000/svg">
<g clip-path="url(#b)">
<g clip-path="url(#a)">
<path d="m57.699 7.134-2.7943 0.16001c-0.0129 0-0.0228 0.0113-0.0228 0.02354v9.7582c0 0.0132 0.0109 0.0236 0.0248 0.0236h2.7943c0.0138 0 0.0247-0.0104 0.0247-0.0236v-9.9183c0-0.01318-0.0119-0.02353-0.0257-0.02353h-1e-3z" fill="color(display-p3 0.0039 0.3765 0.4431)"/>
<path d="m56.303 3.5995c-1.3382 0-1.5539 0.49323-1.5539 1.3554 0 0.75962 0.2157 1.3357 1.5539 1.3357 1.3383 0 1.554-0.57512 1.554-1.3357 0-0.86316-0.2809-1.3554-1.554-1.3554z" fill="color(display-p3 0.0039 0.3765 0.4431)"/>
<path d="m49.881 7.0709c-0.6044 0-2.184 0-3.6182 0.8208 0 0-1e-3 0-2e-3 9.4e-4 -0.1355 0.06871-0.269 0.14308-0.4006 0.22403-0.5153-0.69844-1.4422-1.0458-2.732-1.0458-0.4777 0-1.9505 0.08377-3.3769 0.74738v-0.66172c0-0.01318-0.0108-0.02354-0.0247-0.02354l-2.7943 0.16002c-0.0128 0-0.0227 0.01036-0.0227 0.02354v9.7583c0 0.0132 0.0108 0.0235 0.0237 0.0235h2.7943c0.0129 0 0.0237-0.0103 0.0237-0.0235v-7.6235c0.8487-0.34639 1.6667-0.34639 2.2018-0.34639 1.005 0 1.6459 0.44711 1.6459 1.5248v6.445c0 0.0132 0.0109 0.0235 0.0248 0.0235h2.6864c0.0129 0 0.0248-0.0103 0.0248-0.0235v-7.2987c0-0.09413-3e-3 -0.18543-0.0099-0.27485 0.8892-0.39628 1.7587-0.39628 2.3185-0.39628 0.0317 0 0.0623 0 0.093 9.4e-4 0.8645 0.02824 1.5094 0.4537 1.55 1.4251 9e-4 0.0329 0.0019 0.0659 0.0019 0.0998l-0.1276 6.4449c0 0.0123 0.0109 0.0236 0.0248 0.0236h2.7933c0.0128 0 0.0247-0.0104 0.0247-0.0236v-7.2987c0-1.8101-1.1751-2.7052-3.1207-2.7052l-2e-3 -9.4e-4z" fill="color(display-p3 0.0039 0.3765 0.4431)"/>
<path d="m78.105 14.572c-1.0949 0.5601-1.8862 0.8792-3.4105 0.8792-2.6073 0-2.7142-1.5051-2.7142-3.4376 0-1.9324 0.1712-3.2342 2.5431-3.2342 1.2295 0 2.2483 0.16002 3.4125 0.49982 0.0148 0.00471 0.0297-0.00471 0.0316-0.01977l0.1672-1.603c0-0.00941-0.0049-0.01976-0.0138-0.02353-0.8725-0.3831-1.8972-0.72573-3.5965-0.72573-3.7182 0-5.279 2.3184-5.279 5.1056 0 2.9283 1.1968 5.2476 4.9803 5.2476 1.8714 0 3.363-0.6043 4.1355-1.1709 0.0069-0.0057 0.0099-0.0132 0.0089-0.0217l-0.2285-1.4787c-2e-3 -0.016-0.0207-0.0245-0.0356-0.017h-1e-3z" fill="color(display-p3 0.0039 0.3765 0.4431)"/>
<path d="m81.374 6.2906c1.274 0 1.5539-0.57512 1.5539-1.3357 0-0.86316-0.2809-1.3554-1.5539-1.3554-1.3383 0-1.5539 0.49323-1.5539 1.3554 0 0.75962 0.2156 1.3357 1.5539 1.3357z" fill="color(display-p3 0.0039 0.3765 0.4431)"/>
<path d="m82.769 7.134-2.7943 0.16001c-0.0129 0-0.0228 0.0113-0.0228 0.02354v9.7582c0 0.0132 0.0109 0.0236 0.0248 0.0236h2.7942c0.0139 0 0.0248-0.0104 0.0248-0.0236v-9.9183c0-0.01318-0.0119-0.02353-0.0257-0.02353h-1e-3z" fill="color(display-p3 0.0039 0.3765 0.4431)"/>
<path d="m68.038 14.572c-1.096 0.5601-1.9071 0.8792-3.4521 0.8792-2.6083 0-2.6716-1.5051-2.6716-3.4376s0.1286-3.2342 2.5648-3.2342c1.2087 0 2.1642 0.16002 3.3274 0.50077 0.0148 0.00376 0.0297-0.00471 0.0317-0.01977l0.2294-1.603c1e-3 -0.01035-0.0039-0.01976-0.0138-0.02353-0.8724-0.3831-1.9169-0.72573-3.5737-0.72573-3.7835 0-5.2573 2.3184-5.2573 5.1055 0 2.9283 1.1108 5.2477 4.9585 5.2477 1.8932 0 3.3631-0.6043 4.1138-1.171 7e-3 -0.0056 0.0109-0.0132 0.0089-0.0216l-0.2275-1.4797c-0.0029-0.0151-0.0207-0.0236-0.0366-0.017h-0.0019z" fill="color(display-p3 0.0039 0.3765 0.4431)"/>
<path d="m35.007 7.8362c-0.8823-0.38592-2.5787-0.92716-4.2335-0.92716-3.7834 0-6.0278 1.5456-6.0278 5.3701 0 3.5185 1.7528 5.0029 4.0396 5.0029 0.4798 0 1.9654-0.0847 3.3987-0.7578v0.6119c0 0.0132 0.0109 0.0235 0.0247 0.0235h2.7933c0.0139 0 0.0247-0.0103 0.0247-0.0235v-9.2707c0-0.01318-0.0079-0.02447-0.0197-0.03012v9.4e-4zm-5.0456 7.4117c-1.453 0-2.2443-0.7935-2.2443-2.9896 0-2.196 0.6202-3.478 3.0564-3.478 0.5035 0 0.9614 0.0273 1.4105 0.08472v6.0026c-0.8556 0.3445-1.6835 0.3803-2.2226 0.3803z" fill="color(display-p3 0.0039 0.3765 0.4431)"/>
<path d="m17.555 6.6746v6.9411c0 0.2118-0.1049 0.3294-0.2483 0.3812-1.0366 0.3737-4.1751 1.5032-4.1751 1.5032-0.0228 0.0085-0.0475-0.0075-0.0475-0.031v-5.5884c-4.37 2.3438-7.4007 3.83-7.4007 6.3103 0 2.0869 1.8269 2.8342 5.5876 1.876 1.7132-0.4368 5.2978-2.1649 8.0476-3.5646 0.0237-0.0123 0.0514 0.0047 0.0514 0.0291v1.5466c0 0.0094-0.0039 0.0179-0.0109 0.0244-0.3026 0.2617-6.7063 5.7466-11.267 5.9339-3.5955 0.1478-7.4007-1.3376-7.4007-6.3612 0-4.6791 7.2978-8.2475 10.006-9.411l-6.9268-1.6275c-0.01781-0.00376-0.02869-0.02071-0.02572-0.03765l0.69437-3.9882c0.00297-0.018826 0.02275-0.032004 0.04253-0.027297 0.53413 0.13084 6.6044 1.6199 9.5194 2.3363 2.186 0.53653 3.554 1.3874 3.554 3.7557v-9.4e-4z" fill="color(display-p3 0.0588 0.7608 0.7529)"/>
</g>
</g>
<defs>
<clipPath id="b">
<rect width="83.62" height="22.627" fill="#fff"/>
</clipPath>
<clipPath id="a">
<rect width="83.62" height="22.627" fill="#fff"/>
</clipPath>
</defs>
</svg>
