<?xml version="1.0" encoding="UTF-8"?>
<svg fill="none" viewBox="0 0 19 23" xmlns="http://www.w3.org/2000/svg">
<path d="m16.864 7.062v6.941c0 0.2118-0.1049 0.3295-0.2483 0.3812-1.0366 0.3737-4.1751 1.5033-4.1751 1.5033-0.0228 0.0084-0.0475-0.0076-0.0475-0.0311v-5.5884c-4.37 2.3438-7.4007 3.8301-7.4007 6.3104 0 2.0868 1.8269 2.8342 5.5876 1.8759 1.7132-0.4367 5.2978-2.1649 8.0476-3.5646 0.0237-0.0122 0.0514 0.0047 0.0514 0.0292v1.5465c0 0.0094-0.0039 0.0179-0.0109 0.0245-0.3026 0.2617-6.7063 5.7465-11.267 5.9338-3.5955 0.1478-7.4007-1.3375-7.4007-6.3612 0-4.6791 7.2978-8.2475 10.006-9.4109l-6.9268-1.6275c-0.0178-0.00377-0.02868-0.02071-0.02572-0.03765l0.69437-3.9882c0.00297-0.018826 0.02275-0.032004 0.04253-0.027297 0.53413 0.13084 6.6045 1.62 9.5194 2.3363 2.186 0.53653 3.554 1.3874 3.554 3.7557v-9.4e-4z" fill="#fff"/>
</svg>
